# File produced by Open Asset Import Library (http://www.assimp.sf.net)
# (assimp v3.1.193236683)

mtllib table_mat.mtl

# 32 vertex positions
v  -49.7165 75.8938 619.291
v  -89.0856 75.8938 619.291
v  -89.3024 75.8786 619.508
v  -49.4995 75.8786 619.508
v  -89.3924 75.8424 619.598
v  -49.4097 75.8424 619.598
v  -89.3924 75.8297 619.598
v  -49.4097 75.8297 619.598
v  -89.0856 75.8938 610.168
v  -49.7165 75.8938 610.168
v  -49.4097 75.8424 591.611
v  -49.4097 75.8297 591.611
v  -89.3924 75.8297 591.611
v  -89.3924 75.8424 591.611
v  -49.4097 75.8424 610.268
v  -49.4097 75.8297 610.268
v  -89.3924 75.8424 610.268
v  -89.3924 75.8297 610.268
v  -49.4997 75.8786 610.24
v  -89.3025 75.8786 610.24
v  -89.3024 75.8786 591.701
v  -49.4995 75.8786 591.701
v  -89.0856 75.8938 591.918
v  -49.7165 75.8938 591.918
v  -49.4097 75.8424 600.939
v  -49.4097 75.8297 600.939
v  -49.4997 75.8786 600.969
v  -49.7165 75.8938 601.043
v  -89.0856 75.8938 601.043
v  -89.3025 75.8786 600.969
v  -89.3924 75.8424 600.939
v  -89.3924 75.8297 600.939

# 44 UV coordinates
vt 0.231503 0.201825 0
vt 0.231503 0.900105 0
vt 0.227632 0.905247 0
vt 0.227632 0.199273 0
vt 0.225871 0.906853 0
vt 0.225871 0.197689 0
vt 0.225607 0.906854 0
vt 0.225607 0.197691 0
vt 0.393722 0.900105 0
vt 0.393722 0.201825 0
vt 0.723794 0.195076 0
vt 0.724057 0.195075 0
vt 0.724057 0.904239 0
vt 0.723794 0.90424 0
vt 0.393122 0.196032 0
vt 0.227268 0.196032 0
vt 0.227269 0.195657 0
vt 0.393124 0.195657 0
vt 0.390688 0.905897 0
vt 0.390686 0.906272 0
vt 0.224832 0.906272 0
vt 0.224834 0.905897 0
vt 0.228856 0.19795 0
vt 0.393647 0.19795 0
vt 0.226434 0.903976 0
vt 0.391226 0.903976 0
vt 0.722032 0.902653 0
vt 0.722032 0.196679 0
vt 0.718161 0.900105 0
vt 0.718161 0.201825 0
vt 0.724831 0.196032 0
vt 0.558977 0.196032 0
vt 0.558978 0.195657 0
vt 0.724832 0.195657 0
vt 0.72323 0.19795 0
vt 0.558439 0.19795 0
vt 0.555942 0.201825 0
vt 0.555942 0.900105 0
vt 0.720809 0.903976 0
vt 0.556017 0.903976 0
vt 0.722396 0.905897 0
vt 0.556542 0.905897 0
vt 0.722395 0.906272 0
vt 0.556541 0.906272 0

# 28 vertex normals
vn 0.000601 0.999997 0.002215
vn -0.000601 0.999997 0.002214
vn -0.046368 0.981332 0.18665
vn 0.046399 0.98134 0.186598
vn -0.088573 0.877746 0.470867
vn 0.08848 0.877811 0.470765
vn -0.226748 0 0.973953
vn 0.226748 0 0.973953
vn -0.000387 1 -0
vn 0.000387 1 0
vn 0.088442 0.877801 -0.470789
vn 0.226708 0 -0.973963
vn -0.226708 0 -0.973963
vn -0.088559 0.877752 -0.47086
vn 0.477582 0.878587 -3e-06
vn 1 0 0
vn -0.478118 0.878296 0
vn -1 0 0
vn 0.165814 0.986157 -1e-06
vn -0.165838 0.986153 -1e-06
vn -0.046364 0.981333 -0.186645
vn 0.046369 0.98134 -0.186603
vn -0.000601 0.999997 -0.002214
vn 0.000601 0.999997 -0.002214
vn 0.477555 0.878602 3e-06
vn 0.165759 0.986166 1e-06
vn -0.165823 0.986156 1e-06
vn -0.478055 0.87833 0

# Mesh 'g table_mat_table_mat' with 54 faces
g g table_mat_table_mat
usemtl phong43SG
f  1/1/1 2/2/2 3/3/3
f  3/3/3 4/4/4 1/1/1
f  4/4/4 3/3/3 5/5/5
f  5/5/5 6/6/6 4/4/4
f  6/6/6 5/5/5 7/7/7
f  7/7/7 8/8/8 6/6/6
f  9/9/9 2/2/2 1/1/1
f  1/1/1 10/10/10 9/9/9
f  11/11/11 12/12/12 13/13/13
f  13/13/13 14/14/14 11/11/11
f  15/15/15 6/16/6 8/17/8
f  8/17/8 16/18/16 15/15/15
f  17/19/17 18/20/18 7/21/7
f  7/21/7 5/22/5 17/19/17
f  10/10/10 1/1/1 4/23/4
f  4/23/4 19/24/19 10/10/10
f  19/24/19 4/23/4 6/16/6
f  6/16/6 15/15/15 19/24/19
f  17/19/17 5/22/5 3/25/3
f  3/25/3 20/26/20 17/19/17
f  20/26/20 3/25/3 2/2/2
f  2/2/2 9/9/9 20/26/20
f  11/11/11 14/14/14 21/27/21
f  21/27/21 22/28/22 11/11/11
f  22/28/22 21/27/21 23/29/23
f  23/29/23 24/30/24 22/28/22
f  11/31/11 25/32/25 26/33/16
f  26/33/16 12/34/12 11/31/11
f  22/35/22 27/36/26 25/32/25
f  25/32/25 11/31/11 22/35/22
f  24/30/24 28/37/10 27/36/26
f  27/36/26 22/35/22 24/30/24
f  23/29/23 29/38/9 28/37/10
f  28/37/10 24/30/24 23/29/23
f  21/39/21 30/40/27 29/38/9
f  29/38/9 23/29/23 21/39/21
f  14/41/14 31/42/28 30/40/27
f  30/40/27 21/39/21 14/41/14
f  14/41/14 13/43/13 32/44/18
f  32/44/18 31/42/28 14/41/14
f  25/32/25 15/15/15 16/18/16
f  16/18/16 26/33/16 25/32/25
f  27/36/26 19/24/19 15/15/15
f  15/15/15 25/32/25 27/36/26
f  28/37/10 10/10/10 19/24/19
f  19/24/19 27/36/26 28/37/10
f  29/38/9 9/9/9 10/10/10
f  10/10/10 28/37/10 29/38/9
f  30/40/27 20/26/20 9/9/9
f  9/9/9 29/38/9 30/40/27
f  31/42/28 17/19/17 20/26/20
f  20/26/20 30/40/27 31/42/28
f  31/42/28 32/44/18 18/20/18
f  18/20/18 17/19/17 31/42/28

